# xmcd CD database file
#
# Track frame offsets:
#	150
#	17535
#	33420
#	53356
#	71509
#	86030
#	99638
#	110995
#	124646
#	137854
#	149564
#	166556
#	180586
#	194896
#	206406
#	220514
#	240982
#	256775
#	269142
#	281315
#	292651
#	310807
#	331931
#
# Disc length: 4618 seconds
#
# Revision: 0
# Processed by: cddbd v1.5.1PL0 Copyright (c) Steve Scherf et al.
# Submitted via: CDex 1.50beta9
#
DISCID=4b120817
DTITLE=Townes Van Zandt - Flyin Shoes (1-10) Live 1973 (11-18) Various Live (19-23)
DYEAR=1900
DGENRE=Country
TTITLE0=Townes Van Zandt - Loretta
TTITLE1=Townes Van Zandt - No Place To Fall
TTITLE2=Townes Van Zandt - Flyin' Shoes
TTITLE3=Townes Van Zandt - Who Do You Love
TTITLE4=Townes Van Zandt - When She Don't Need Me
TTITLE5=Townes Van Zandt - Dollar Bill Blues
TTITLE6=Townes Van Zandt - Rex's Blues
TTITLE7=Townes Van Zandt - Pueblo Waltz
TTITLE8=Townes Van Zandt - Brother Flower
TTITLE9=Townes Van Zandt - Snake Song
TTITLE10=Townes Van Zandt - Two Girls (Live)
TTITLE11=Townes Van Zandt - Fraternity Blues (Live)
TTITLE12=Townes Van Zandt - White Freight Liner Blues (Live)
TTITLE13=Townes Van Zandt - Talking Thunderbird Blues (Live)
TTITLE14=Townes Van Zandt - Nine Pound Hammer (Live)
TTITLE15=Townes Van Zandt - Chauffeur's Blues (Live)
TTITLE16=Townes Van Zandt - Cocaine Blues (Live)
TTITLE17=Townes Van Zandt - Only Him Or Me (Live)
TTITLE18=Townes Van Zandt - Dollar Bill Blues (Internet Download)
TTITLE19=Townes Van Zandt - Texas River Song (Internet Download)
TTITLE20=Townes Van Zandt - Pancho and Lefty (Live 1993)
TTITLE21=Townes Van Zandt - Tecumseh Valley (Live 1993)
TTITLE22=Townes Van Zandt - Waitin' 'round To Die (Live 1993)
EXTD=
EXTT0=
EXTT1=
EXTT2=
EXTT3=
EXTT4=
EXTT5=
EXTT6=
EXTT7=
EXTT8=
EXTT9=
EXTT10=
EXTT11=
EXTT12=
EXTT13=
EXTT14=
EXTT15=
EXTT16=
EXTT17=
EXTT18=
EXTT19=
EXTT20=
EXTT21=
EXTT22=
PLAYORDER=
